<?xml version="1.0" encoding="UTF-8"?>
<svg id="Calque_2" data-name="Calque 2" xmlns="http://www.w3.org/2000/svg" viewBox="0 0 102.6 14.94">
  <defs>
    <style>
      .cls-1 {
        fill: #f7f9f7;
      }

      .cls-2 {
        fill: #1b5e20;
      }
    </style>
  </defs>
  <g id="Calque_1-2" data-name="Calque 1">
    <g>
      <path class="cls-2" d="M10.51,12.3h-4.28c-.41,0-.77.25-.92.63-.28.6-.5,2.03-1.43,1.95,0,0-2.9,0-2.9,0-.71,0-1.19-.73-.9-1.38L5.7.66c.16-.36.51-.59.9-.59h3.62c.39,0,.75.23.9.59l5.62,12.85c.29.65-.19,1.38-.9,1.38h-2.98c-1.46.02-.89-2.6-2.35-2.58ZM9.29,7.36c-.33-.84-1.52-.84-1.84,0-.52,1.75,2.36,1.75,1.84,0Z"/>
      <path class="cls-2" d="M23.36,5.1c.22,2.97,5.96-.43,6.18,2.54.04,1.01.13,2.48-1.27,2.5,0,0-3.64,0-3.64,0-.7,0-1.27.57-1.27,1.27v2.2c.02,1.8-2.64,1.16-3.73,1.27-.7,0-1.27-.57-1.27-1.27C19.14-2.47,14.38.26,29.14.07c1.39.02,1.31,1.49,1.27,2.5-.12,3-6.93-.46-7.05,2.54Z"/>
      <path class="cls-2" d="M37.82,11.16c-1.96.11.19,3.61-1.77,3.73h-3.23c-.49,0-.89-.4-.89-.89V.95c0-.49.4-.89.89-.89,4.75-.04,13.16-.94,13,5.59.15,3.68-3.14,4.03-2.27,5.43,0,0,1.65,2.42,1.65,2.42.4.59-.02,1.38-.73,1.38h-3.19c-1.23.02-2.23-3.75-3.46-3.73ZM38.75,3.92c-.68-.03-1.84-.1-1.82.89.08.74-.37,2.62.89,2.59,0,0,.94,0,.94,0,2.73.18,2.73-3.65,0-3.47Z"/>
      <path class="cls-2" d="M49.85.07c1.38,0,2.5,1.12,2.5,2.5v9.82c0,1.38-1.12,2.5-2.5,2.5-1.38,0-2.5-1.12-2.5-2.5V2.56c0-1.38,1.12-2.5,2.5-2.5Z"/>
      <path class="cls-2" d="M68.49,10.8c.45,5.34-9.78,3.93-13.51,4.09-.61,0-1.1-.49-1.1-1.1V1.17c0-.61.49-1.1,1.1-1.1,3.6.1,13.23-1.06,12.81,3.87,0,.88-.29,1.67-.85,2.3-1.21,1.61,1.73,1.87,1.55,4.56ZM58.79,4.66c0,1.27,1.45,1.12,2.33,1.1,1.12,0,1.63-.38,1.63-1.1s-.51-1.1-1.63-1.1c-.88-.02-2.33-.17-2.33,1.1ZM63.45,10.23c0-.76-.55-1.16-1.65-1.16-1,.06-3.12-.42-3.01,1.23,0,1.5,2.08,1.03,3.01,1.1,1.1,0,1.65-.4,1.65-1.16Z"/>
      <path class="cls-2" d="M97.62,14.37c-.7-.95-1.76-3.65-3.18-1.93,0,0-1.21,1.92-1.21,1.92-.43.95-3.05.39-3.81.53-.93,0-1.47-1.05-.93-1.81l3.59-5.01c.28-.39.29-.92,0-1.32l-3.44-4.89c-.53-.76,0-1.8.93-1.8h2.81c1.6-.04,2.11,4.37,4.07,2.3,0,0,1.18-1.79,1.18-1.79.43-.89,2.75-.39,3.49-.51.93,0,1.47,1.05.93,1.81l-3.37,4.69c-.29.4-.29.93,0,1.33l3.7,5.2c.54.76,0,1.8-.93,1.8-.78-.16-3.39.42-3.84-.52Z"/>
      <rect class="cls-2" x="70.02" y=".07" width="16.73" height="14.82" rx="3.12" ry="3.12"/>
      <path class="cls-1" d="M81.9,6.47c-1.75,0-5.27,0-7.02,0-.31,0-.2.45-.22.63,0,0,0,1.83,0,1.83,0,.12.1.22.22.22h3.42c.12,0,.22-.1.22-.22v-1.61h3.37c.31,0,.2-.45.22-.63,0-.12-.1-.22-.22-.22Z"/>
    </g>
  </g>
</svg>