<?xml version="1.0" encoding="UTF-8"?>
<svg id="Calque_2" data-name="Calque 2" xmlns="http://www.w3.org/2000/svg" viewBox="0 0 796.76 1108.69">
  <defs>
    <style>
      .cls-1 {
        letter-spacing: -.01em;
      }

      .cls-2 {
        fill: #f7f9f7;
      }

      .cls-3 {
        letter-spacing: 0em;
      }

      .cls-4 {
        fill: #fff;
      }

      .cls-5 {
        fill: #72c18a;
      }

      .cls-6 {
        letter-spacing: 0em;
      }

      .cls-7, .cls-8 {
        fill: #1b5e20;
      }

      .cls-9 {
        fill: #26a25c;
      }

      .cls-10 {
        letter-spacing: -.02em;
      }

      .cls-8 {
        font-family: Montserrat-Medium, Montserrat;
        font-size: 56.31px;
        font-weight: 500;
      }

      .cls-11 {
        fill: #256029;
      }
    </style>
  </defs>
  <g id="_2" data-name="2">
    <g>
      <text class="cls-8" transform="translate(8.07 1093.88)"><tspan x="0" y="0">SMA</tspan><tspan class="cls-3" x="129.97" y="0">R</tspan><tspan x="170.35" y="0">T </tspan><tspan class="cls-1" x="218.55" y="0">L</tspan><tspan x="251.27" y="0">OCKER NE</tspan><tspan class="cls-6" x="557.06" y="0">T</tspan><tspan class="cls-10" x="589.66" y="0">W</tspan><tspan x="651.84" y="0">ORK</tspan></text>
      <g>
        <path class="cls-7" d="M81.62,1005.33h-33.21c-3.17,0-6.01,1.95-7.15,4.91-2.21,4.69-3.89,15.76-11.1,15.15,0,0-22.48,0-22.48,0-5.53,0-9.24-5.67-7.02-10.74l43.61-99.76c1.22-2.79,3.98-4.6,7.02-4.6h28.12c3.05,0,5.8,1.8,7.02,4.6l43.61,99.76c2.21,5.07-1.5,10.74-7.02,10.74h-23.14c-11.33.12-6.92-20.18-18.25-20.06ZM72.17,966.95c-2.53-6.54-11.78-6.54-14.3,0-4.02,13.62,18.33,13.62,14.3,0Z"/>
        <path class="cls-7" d="M181.37,949.42c1.7,23.06,46.32-3.33,48.01,19.73.31,7.81.97,19.23-9.87,19.4,0,0-28.28,0-28.28,0-5.45,0-9.87,4.42-9.87,9.87v17.1c.15,14.01-20.51,9.04-28.94,9.87-5.45,0-9.86-4.42-9.86-9.87,6.09-124.95-30.89-103.71,83.69-105.23,10.82.19,10.2,11.56,9.87,19.4-.92,23.32-53.83-3.59-54.76,19.73Z"/>
        <path class="cls-7" d="M293.68,996.45c-15.19.89,1.44,28.05-13.75,28.94h-25.06c-3.8,0-6.87-3.08-6.87-6.87v-101.35c0-3.8,3.08-6.87,6.87-6.87,36.9-.31,102.19-7.3,100.99,43.41,1.16,28.61-24.36,31.32-17.65,42.13,0,0,12.81,18.81,12.81,18.81,3.11,4.56-.16,10.74-5.68,10.74h-24.79c-9.52.18-17.35-29.11-26.87-28.94ZM300.95,940.22c-5.3-.23-14.27-.74-14.14,6.87.6,5.78-2.88,20.32,6.87,20.09,0,0,7.27,0,7.27,0,21.18,1.41,21.18-28.37,0-26.96Z"/>
        <path class="cls-7" d="M387.15,910.29c10.72,0,19.4,8.69,19.4,19.4v76.29c0,10.72-8.69,19.4-19.4,19.4-10.72,0-19.4-8.69-19.4-19.4v-76.29c0-10.72,8.69-19.4,19.4-19.4Z"/>
        <path class="cls-7" d="M531.88,993.65c3.47,41.43-75.96,30.49-104.91,31.73-4.72,0-8.55-3.83-8.55-8.55v-97.99c0-4.72,3.83-8.55,8.55-8.55,27.93.75,102.75-8.24,99.48,30.09,0,6.87-2.24,12.99-6.64,17.89-9.42,12.48,13.42,14.55,12.07,35.38ZM456.58,945.97c.01,9.83,11.29,8.72,18.09,8.55,8.71,0,12.66-2.96,12.66-8.55s-3.95-8.55-12.66-8.55c-6.8-.16-18.08-1.28-18.09,8.55ZM492.75,989.21c0-5.92-4.28-9.04-12.83-9.04-7.76.48-24.2-3.23-23.35,9.54-.07,11.69,16.13,8.03,23.35,8.55,8.55,0,12.83-3.12,12.83-9.04Z"/>
        <path class="cls-7" d="M758.07,1021.34c-5.4-7.37-13.63-28.33-24.68-14.97,0,0-9.39,14.89-9.39,14.89-3.33,7.35-23.66,3.03-29.59,4.13-7.21,0-11.4-8.16-7.2-14.03l27.88-38.9c2.2-3.06,2.21-7.18.05-10.26l-26.69-37.95c-4.13-5.87.07-13.96,7.25-13.96h21.8c12.46-.34,16.37,33.92,31.58,17.86,0,0,9.14-13.87,9.14-13.87,3.36-6.94,21.34-3.01,27.11-3.99,7.22,0,11.41,8.17,7.19,14.04l-26.16,36.39c-2.21,3.08-2.22,7.23-.02,10.32l28.76,40.35c4.18,5.87-.01,14-7.22,14-6.06-1.27-26.36,3.27-29.82-4.05Z"/>
        <rect class="cls-7" x="543.76" y="910.29" width="129.9" height="115.09" rx="24.19" ry="24.19"/>
        <path class="cls-2" d="M635.97,960.03c-13.63,0-40.92,0-54.51,0-2.38-.04-1.53,3.48-1.67,4.9,0,0,0,14.17,0,14.17,0,.96.78,1.74,1.74,1.74h26.56c.96,0,1.74-.78,1.74-1.74v-12.5h26.14c2.37.06,1.53-3.5,1.67-4.9,0-.92-.75-1.67-1.67-1.67Z"/>
      </g>
      <g>
        <path class="cls-7" d="M180.89,42.05c13.74,3.05,30.27-6.96,41.38-14.36-12.09,9.03-26.57,19.83-42.52,17.37,0,0,1.14-3.01,1.14-3.01h0Z"/>
        <path class="cls-7" d="M298.22,22.82l25.78,23.62-.79-.24c18.22-1.97,36.73-2.05,54.83.97-18.08-2.36-36.56-1.63-54.55.97,0,0-.44.07-.44.07-.41-.35-26.55-22.63-26.96-22.99l2.13-2.41h0Z"/>
        <rect class="cls-11" x="440.3" y="65.61" width="83.89" height="83.89" rx="7.85" ry="7.85"/>
        <g>
          <path class="cls-4" d="M484.5,114.17h-17.45c-1.46.41-.41-8.79-.71-9.3-.74-1.55,17.84-.35,18.16-.71,1.46-.41.41,8.79.71,9.3,0,.39-.32.71-.71.71Z"/>
          <path class="cls-4" d="M502.13,104.16h-35.24c-.96-.05-.4,2.13-.55,2.61-.11,1.55,35.24.03,35.79.55.96.05.4-2.13.54-2.62,0-.3-.24-.55-.55-.55Z"/>
        </g>
        <path class="cls-7" d="M235.79,762.15c29.01-24.96,25.2-18.22,65.37-21.69,11.14-.98,26.68-14.43,71.28-25.52,0,0,57.23-31.43,63.63-37.36,0,0,6.09-9.55-2.31-20.8-8.4-11.25-84.84-84.94-84.84-84.94l-9.15-65.32h11.2l11.5,62.03s72.51,59.36,85.45,78.05c9.95,14.32,2.19-113.11,4.24-107.81l15.87.82v104.35s-.15,2.84,5.34,0c9.15-4.73,73.54-50.12,73.54-50.12,0,0,6.98-6.16,11.09-19.72-5.75-9.71-.61-17.12,9.04-27.52l13.97,3.7-15.61,44.37-88.74,64.91c-4.54,35.93,6.86,26.56,54.74,53.71,0,0,49.73-.28,79.7,28.3l32.35,1.39,28.23,19.18c-30.21-13.37-24.34-12.76-57.61-12.43-4.02,2.1,15.54,21.58,18.29,24.92-41.66-15.97-.58-24.61-89.28-43.92,0,0-4.84,2.69,2.87,15.06,13.85,36.17,35.91,10.74,67.58,59.52,0,0-17.57-20.44-42.13-23.66-4.55,12.52,14.13,25.33-6.45,47.15,3.99-72.26-21.22-36.87-41.77-98.24l-43.56-21.15c-10.66,61.56,59.89,68.5,56.65,124.23,0,0-12.37-34.42-28.5-43.74,0,0-5.56-5.2-4.66,13.8l.72,42.67c-.07.26-22.62,26.36-23.31,38.36,0,0-9.14-4.12,12.01-41.59l-.54-59.52-26.71-39.98s-1.08-3.05-3.76.18c0,0-24.92,28.32-26.89,32.09,0,0-3.76,37.65-2.33,45.53,0,0-6.81,17.39-12.01,20.08l-3.05,36.75s-4.66-38.36-3.94-41.05c0,0,6.63-13.62,8.07-17.57l-.36-30.48s.54-9.32-4.48-7.35c0,0-15.06,8.96-16.49,13.98,0,0-4.12,11.83-7.17,14.16-8.49,8.08-20.24,1.05-30.66,29.04,0,0-5.56-12.91,9.68-28.32,23.13-9.18,11.34-21.73,32.45-34.24,0,0,21.69-11.83,41.41-37.65l.72-34.78c-76.57,11.94-37.75,72.75-112.22,90.35,0,0-13.8,4.48-19.18,17.03-4.74-29.74,42.85-13.06,58.44-72.78,0,0,5.38-11.65.18-7.89,0,0-25.46,8.78-44.28,13.8-24.66.91-16.24,24.64-53.78,38.36,0,0,13.62-14.16,22.05-26.53,0,0,4.48-4.3-1.08-5.02l-32.09.36-28.72,10.46Z"/>
        <path class="cls-7" d="M450.13,474.35c26.83-31.02,58.4-58.77,95.37-76.96-36.26,19.02-67.02,47.48-92.85,78.96l-2.52-2h0Z"/>
        <path class="cls-7" d="M323.42,441.97c-20.29-25.2-16.62-63.26,10.39-82.01-25.61,19.1-28.48,56.12-7.91,79.95,0,0-2.48,2.05-2.48,2.05h0Z"/>
        <path class="cls-7" d="M231.95,301.71c37.11,9.23,79.67,29.11,92.71,67.86-14.12-38.2-56.19-56.42-93.31-64.7l.61-3.16h0Z"/>
        <path class="cls-7" d="M174.51,317.7c-24.13-20.42-55.69-52.61-59.74-85.09,6.58,34.7,35.61,61,61.71,82.54l-1.97,2.55h0Z"/>
        <path class="cls-7" d="M88.94,163.92c6.1-29.15,21.63-81.84,54.25-89.72-35.24,12.85-43.87,57.6-51.07,90.25l-3.17-.53h0Z"/>
        <path class="cls-7" d="M407.62,56.21c34.97,3.18,70.83,4.49,104.37,15.72,2.92,1.31,6.24,2.77,7.96,5.7,19.31,49.35,67.92,167.63,126.64,172.99-66.14-12.39-103.69-115.98-128.32-171.55-1.31-2.72-4.48-3.89-7.13-5.1-33.25-10.74-69.08-11.74-103.71-14.55,0,0,.19-3.21.19-3.21h0Z"/>
        <path class="cls-7" d="M585.69,248.01c2.23.25,108.39,12.39,110.54,12.64-19.49,22.14-87.92,89.58-84.41,116.86-3.02-28.57,61.99-93.34,81.8-116.79l.56,1.54-108.84-11.05.35-3.2h0Z"/>
        <path class="cls-7" d="M150.47,201.52c30.98-28.92,79.11-54.15,113.92-16.81,17.14,18.84,30.56,40.86,50.55,57.02,54.13,40.86,119.01,65.31,180.75,92.38-62.05-26.62-127.25-50.61-181.79-91.15-20.1-15.97-33.9-38.06-51.09-56.7-33.65-35.93-80.62-10.49-110.06,17.54l-2.28-2.28h0Z"/>
        <path class="cls-7" d="M385.1,377.37c4.23,27.07,5.64,63.95,30.64,80.43,38.14,21.57,77.9,40.22,117.24,59.5-39.66-18.73-79.71-36.8-118.21-57.85-6.49-3.25-11.36-8.59-14.89-14.79-11.22-20.53-15.14-44.05-17.99-67.01l3.21-.28Z"/>
        <path class="cls-7" d="M452.35,245.15c41.29,32.47,105.67,88.71,122.58,138.66-22.46-55.49-78.48-99.79-124.49-136.07l1.92-2.59h0Z"/>
        <path class="cls-7" d="M296.09,165.57c36.04-29.89,118.72-91,166.62-71.95-57.46-15.27-122.10,40.88-164.49,74.37l-2.12-2.42h0Z"/>
        <path class="cls-7" d="M275.92,73.04c54.8,51.94,109.98,104.19,171.63,148.02-62.32-43-118.27-94.48-173.86-145.69l2.23-2.32h0Z"/>
        <path class="cls-7" d="M342.66,266c5.38.48,11.06-.52,16.26-1.9,8.86-2.45,17.85-6.64,25.55-11.55,38.68-24.58,65.01-63.8,88.19-102.6-20.61,36.16-44.21,72.44-77.5,98.04-15.21,11.38-33.38,21.87-52.99,21.19,0,0,.49-3.18.49-3.18h0Z"/>
        <path class="cls-7" d="M695.53,301.06c-51.69,66.11-109.05,154.02-120.61,238.26,12.78-89.85,64.77-168.96,118.11-240.30l2.49,2.04h0Z"/>
        <rect class="cls-5" x="519.29" y="208.84" width="83.89" height="83.89" rx="7.85" ry="7.85"/>
        <rect class="cls-5" x="160.05" y="249.61" width="83.89" height="83.89" rx="7.85" ry="7.85"/>
        <rect class="cls-5" x="317.91" y="313.5" width="83.89" height="83.89" rx="7.85" ry="7.85"/>
        <rect class="cls-11" x="636.72" y="232.53" width="83.89" height="83.89" rx="7.85" ry="7.85"/>
        <rect class="cls-5" x="223.4" y="126.7" width="83.89" height="83.89" rx="7.85" ry="7.85"/>
        <rect class="cls-9" x="411.8" y="181.88" width="83.89" height="83.89" rx="7.85" ry="7.85"/>
        <rect class="cls-11" x="425.45" y="316.59" width="83.89" height="83.89" rx="7.85" ry="7.85"/>
        <rect class="cls-9" x="415.47" y="462.96" width="83.89" height="83.89" rx="7.85" ry="7.85"/>
        <rect class="cls-11" x="281.4" y="219.4" width="83.89" height="83.89" rx="7.85" ry="7.85"/>
        <rect class="cls-5" x="525.05" y="475.35" width="83.89" height="83.89" rx="7.85" ry="7.85"/>
        <rect class="cls-9" x="532.98" y="359.97" width="83.89" height="83.89" rx="7.85" ry="7.85"/>
        <rect class="cls-11" x="305.8" y="427.77" width="83.89" height="83.89" rx="7.85" ry="7.85"/>
        <rect class="cls-11" x="76.15" y="151.11" width="83.89" height="83.89" rx="7.85" ry="7.85"/>
        <g>
          <path class="cls-4" d="M569.66,522.3h-17.45c-1.46.41-.41-8.79-.71-9.3-.74-1.55,17.84-.35,18.16-.71,1.46-.41.41,8.79.71,9.3,0,.39-.32.71-.71.71Z"/>
          <path class="cls-4" d="M587.28,512.29h-35.24c-.96-.05-.4,2.13-.55,2.61-.11,1.55,35.24.03,35.79.55.96.05.4-2.13.54-2.62,0-.3-.24-.55-.55-.55Z"/>
        </g>
        <g>
          <path class="cls-4" d="M460.1,508.22h-17.45c-1.46.41-.41-8.79-.71-9.3-.74-1.55,17.84-.35,18.16-.71,1.46-.41.41,8.79.71,9.3,0,.39-.32.71-.71.71Z"/>
          <path class="cls-4" d="M477.73,498.22h-35.24c-.96-.05-.4,2.13-.55,2.61-.11,1.55,35.24.03,35.79.55.96.05.4-2.13.54-2.62,0-.3-.24-.55-.55-.55Z"/>
        </g>
        <g>
          <path class="cls-4" d="M347.74,474.71h-17.45c-1.46.41-.41-8.79-.71-9.3-.74-1.55,17.84-.35,18.16-.71,1.46-.41.41,8.79.71,9.3,0,.39-.32.71-.71.71Z"/>
          <path class="cls-4" d="M365.37,464.71h-35.24c-.96-.05-.4,2.13-.55,2.61-.11,1.55,35.24.03,35.79.55.96.05.4-2.13.54-2.62,0-.3-.24-.55-.55-.55Z"/>
        </g>
        <g>
          <path class="cls-4" d="M362.14,358.53h-17.45c-1.46.41-.41-8.79-.71-9.3-.74-1.55,17.84-.35,18.16-.71,1.46-.41.41,8.79.71,9.3,0,.39-.32.71-.71.71Z"/>
          <path class="cls-4" d="M379.76,348.53h-35.24c-.96-.05-.4,2.13-.55,2.61-.11,1.55,35.24.03,35.79.55.96.05.4-2.13.54-2.62,0-.3-.24-.55-.55-.55Z"/>
        </g>
        <g>
          <path class="cls-4" d="M469.55,363.53h-17.45c-1.46.41-.41-8.79-.71-9.3-.74-1.55,17.84-.35,18.16-.71,1.46-.41.41,8.79.71,9.3,0,.39-.32.71-.71.71Z"/>
          <path class="cls-4" d="M487.18,353.53h-35.24c-.96-.05-.4,2.13-.55,2.61-.11,1.55,35.24.03,35.79.55.96.05.4-2.13.54-2.62,0-.3-.24-.55-.55-.55Z"/>
        </g>
        <g>
          <path class="cls-4" d="M579.09,408.83h-17.45c-1.46.41-.41-8.79-.71-9.3-.74-1.55,17.84-.35,18.16-.71,1.46-.41.41,8.79.71,9.3,0,.39-.32.71-.71.71Z"/>
          <path class="cls-4" d="M596.72,398.82h-35.24c-.96-.05-.4,2.13-.55,2.61-.11,1.55,35.24.03,35.79.55.96.05.4-2.13.54-2.62,0-.3-.24-.55-.55-.55Z"/>
        </g>
        <g>
          <path class="cls-4" d="M564.14,256.22h-17.45c-1.46.41-.41-8.79-.71-9.3-.74-1.55,17.84-.35,18.16-.71,1.46-.41.41,8.79.71,9.3,0,.39-.32.71-.71.71Z"/>
          <path class="cls-4" d="M581.77,246.21h-35.24c-.96-.05-.4,2.13-.55,2.61-.11,1.55,35.24.03,35.79.55.96.05.4-2.13.54-2.62,0-.3-.24-.55-.55-.55Z"/>
        </g>
        <g>
          <path class="cls-4" d="M453.03,228.04h-17.45c-1.46.41-.41-8.79-.71-9.3-.74-1.55,17.84-.35,18.16-.71,1.46-.41.41,8.79.71,9.3,0,.39-.32.71-.71.71Z"/>
          <path class="cls-4" d="M470.66,218.04h-35.24c-.96-.05-.4,2.13-.55,2.61-.11,1.55,35.24.03,35.79.55.96.05.4-2.13.54-2.62,0-.3-.24-.55-.55-.55Z"/>
        </g>
        <g>
          <path class="cls-4" d="M324.65,266.77h-17.45c-1.46.41-.41-8.79-.71-9.3-.74-1.55,17.84-.35,18.16-.71,1.46-.41.41,8.79.71,9.3,0,.39-.32.71-.71.71Z"/>
          <path class="cls-4" d="M342.28,256.77h-35.24c-.96-.05-.4,2.13-.55,2.61-.11,1.55,35.24.03,35.79.55.96.05.4-2.13.54-2.62,0-.3-.24-.55-.55-.55Z"/>
        </g>
        <g>
          <path class="cls-4" d="M201.99,294.34h-17.45c-1.46.41-.41-8.79-.71-9.3-.74-1.55,17.84-.35,18.16-.71,1.46-.41.41,8.79.71,9.3,0,.39-.32.71-.71.71Z"/>
          <path class="cls-4" d="M219.61,284.33h-35.24c-.96-.05-.4,2.13-.55,2.61-.11,1.55,35.24.03,35.79.55.96.05.4-2.13.54-2.62,0-.3-.24-.55-.55-.55Z"/>
        </g>
        <g>
          <path class="cls-4" d="M118.09,199.67h-17.45c-1.46.41-.41-8.79-.71-9.3-.74-1.55,17.84-.35,18.16-.71,1.46-.41.41,8.79.71,9.3,0,.39-.32.71-.71.71Z"/>
          <path class="cls-4" d="M135.72,189.66h-35.24c-.96-.05-.4,2.13-.55,2.61-.11,1.55,35.24.03,35.79.55.96.05.4-2.13.54-2.62,0-.3-.24-.55-.55-.55Z"/>
        </g>
        <g>
          <path class="cls-4" d="M265.34,174.17h-17.45c-1.46.41-.41-8.79-.71-9.3-.74-1.55,17.84-.35,18.16-.71,1.46-.41.41,8.79.71,9.3,0,.39-.32.71-.71.71Z"/>
          <path class="cls-4" d="M282.96,164.16h-35.24c-.96-.05-.4,2.13-.55,2.61-.11,1.55,35.24.03,35.79.55.96.05.4-2.13.54-2.62,0-.3-.24-.55-.55-.55Z"/>
        </g>
        <g>
          <path class="cls-4" d="M682.04,279.52h-17.45c-1.46.41-.41-8.79-.71-9.3-.74-1.55,17.84-.35,18.16-.71,1.46-.41.41,8.79.71,9.3,0,.39-.32.71-.71.71Z"/>
          <path class="cls-4" d="M699.67,269.52h-35.24c-.96-.05-.4,2.13-.55,2.61-.11,1.55,35.24.03,35.79.55.96.05.4-2.13.54-2.62,0-.3-.24-.55-.55-.55Z"/>
        </g>
        <rect class="cls-9" x="222.02" y="0" width="83.89" height="83.89" rx="7.85" ry="7.85"/>
        <rect class="cls-5" x="341.55" y="47.18" width="83.89" height="83.89" rx="7.85" ry="7.85"/>
        <g>
          <path class="cls-4" d="M266.04,48.56h-17.45c-1.46.41-.41-8.79-.71-9.3-.74-1.55,17.84-.35,18.16-.71,1.46-.41.41,8.79.71,9.3,0,.39-.32.71-.71.71Z"/>
          <path class="cls-4" d="M283.67,38.55h-35.24c-.96-.05-.4,2.13-.55,2.61-.11,1.55,35.24.03,35.79.55.96.05.4-2.13.54-2.62,0-.3-.24-.55-.55-.55Z"/>
        </g>
        <g>
          <path class="cls-4" d="M386.47,95.07h-17.45c-1.46.41-.41-8.79-.71-9.3-.74-1.55,17.84-.35,18.16-.71,1.46-.41.41,8.79.71,9.3,0,.39-.32.71-.71.71Z"/>
          <path class="cls-4" d="M404.1,85.06h-35.24c-.96-.05-.4,2.13-.55,2.61-.11,1.55,35.24.03,35.79.55.96.05.4-2.13.54-2.62,0-.3-.24-.55-.55-.55Z"/>
        </g>
        <rect class="cls-9" x="133.55" y="47.18" width="83.89" height="83.89" rx="7.85" ry="7.85"/>
        <g>
          <path class="cls-4" d="M175.49,95.07h-17.45c-1.46.41-.41-8.79-.71-9.3-.74-1.55,17.84-.35,18.16-.71,1.46-.41.41,8.79.71,9.3,0,.39-.32.71-.71.71Z"/>
          <path class="cls-4" d="M193.12,85.06h-35.24c-.96-.05-.4,2.13-.55,2.61-.11,1.55,35.24.03,35.79.55.96.05.4-2.13.54-2.62,0-.3-.24-.55-.55-.55Z"/>
        </g>
      </g>
    </g>
  </g>
</svg>
